<?xml version="1.0" encoding="iso-8859-1"?>
<!-- Generator: Adobe Illustrator 19.0.0, SVG Export Plug-In . SVG Version: 6.00 Build 0)  -->
<svg version="1.1" id="Layer_1" xmlns="http://www.w3.org/2000/svg" xmlns:xlink="http://www.w3.org/1999/xlink" x="0px" y="0px"
	 viewBox="0 0 512.001 512.001" style="enable-background:new 0 0 512.001 512.001;" xml:space="preserve">
<path style="fill:#FFA800;" d="M479.519,191.316v285.93c0,13.725-12.654,23.956-26.075,21.08l-124.83-26.75l-150.905,32.338
	L22.251,474.278c-8.22-1.567-14.167-8.755-14.167-17.123c0-4.574,1.797-8.963,5.004-12.223l164.619-167.38v-86.234h301.812V191.316z
	"/>
<path style="fill:#CC7400;" d="M328.613,180.538h150.905v296.709c0,13.725-12.654,23.956-26.075,21.08l-124.83-26.75V180.538z"/>
<path style="fill:#FF8B00;" d="M177.708,503.915L22.251,474.278c-8.22-1.567-14.167-8.755-14.167-17.123l0,0
	c0-4.574,1.797-8.963,5.004-12.223l164.619-167.38v226.363H177.708z"/>
<path style="fill:#CC7400;" d="M177.708,277.55v226.363l-13.508-2.575l-39.261-170.134L177.708,277.55z"/>
<path style="fill:#BD5200;" d="M479.519,180.538v86.234L328.613,374.564L177.708,266.771v-86.234h150.905L479.519,180.538
	L479.519,180.538z"/>
<g>
	<path style="fill:#CC7400;" d="M177.708,266.771v-86.234h150.905v194.026L177.708,266.771z"/>
	<path style="fill:#CC7400;" d="M393.287,64.893L471.344,18.5c14.37-8.541,32.572,1.815,32.572,18.532v137.415H393.287V64.893z"/>
</g>
<path style="fill:#FFA800;" d="M263.94,174.447H153.31V37.032c0-16.717,18.202-27.073,32.572-18.532l78.057,46.394v109.554H263.94z"
	/>
<path style="fill:#CC7400;" d="M263.94,174.447H153.31V151.33l72.665-109.001l37.965,22.565V174.447z"/>
<path style="fill:#BD5200;" d="M393.287,64.893l37.965-22.565l72.664,109.001v23.118H393.287V64.893z"/>
<path style="fill:#FF8B00;" d="M313.369,334.51L153.31,174.447L313.369,14.384c8.419-8.419,22.069-8.419,30.488,0l160.059,160.063
	L343.857,334.51C335.438,342.93,321.788,342.93,313.369,334.51z"/>
<path style="fill:#823E20;" d="M343.857,273.086l30.711,30.712l-30.711,30.712c-8.418,8.419-22.069,8.419-30.487,0l-30.711-30.712
	l30.711-30.712C321.788,264.667,335.438,264.667,343.857,273.086z"/>
<path style="fill:#602812;" d="M374.568,303.798l-30.711,30.712c-4.036,4.036-9.273,6.115-14.56,6.282v-73.989
	c5.287,0.167,10.525,2.246,14.56,6.282L374.568,303.798z"/>
<path d="M509.718,180.071c0.155-0.16,0.306-0.323,0.448-0.496c0.083-0.101,0.155-0.207,0.233-0.312
	c0.08-0.108,0.164-0.212,0.238-0.323c0.08-0.12,0.15-0.245,0.223-0.366c0.061-0.103,0.127-0.205,0.184-0.313
	c0.067-0.124,0.123-0.251,0.182-0.378c0.053-0.112,0.109-0.223,0.157-0.338c0.052-0.124,0.093-0.25,0.138-0.376
	c0.044-0.123,0.092-0.245,0.129-0.37c0.039-0.127,0.067-0.257,0.099-0.386c0.031-0.127,0.068-0.251,0.093-0.382
	c0.03-0.152,0.049-0.305,0.07-0.458c0.015-0.108,0.036-0.215,0.046-0.323c0.027-0.268,0.041-0.537,0.041-0.806V37.032
	c0-10.795-5.601-20.427-14.984-25.765s-20.524-5.232-29.802,0.283l-71.979,42.781L349.573,8.667
	c-11.556-11.556-30.362-11.556-41.92,0L261.99,54.331l-71.978-42.781c-9.281-5.517-20.421-5.621-29.803-0.283
	c-9.382,5.338-14.983,14.97-14.983,25.765v137.411c0,0.269,0.014,0.538,0.041,0.806c0.011,0.109,0.031,0.216,0.046,0.323
	c0.022,0.153,0.04,0.307,0.07,0.458c0.026,0.129,0.061,0.254,0.093,0.382c0.032,0.129,0.06,0.259,0.099,0.386
	c0.038,0.125,0.085,0.246,0.129,0.369c0.045,0.127,0.087,0.254,0.138,0.378c0.047,0.114,0.103,0.224,0.156,0.336
	c0.059,0.127,0.116,0.255,0.183,0.38c0.057,0.107,0.123,0.208,0.184,0.313c0.073,0.123,0.142,0.247,0.223,0.366
	c0.074,0.112,0.158,0.217,0.238,0.323c0.078,0.105,0.15,0.21,0.233,0.312c0.141,0.172,0.293,0.336,0.448,0.496
	c0.03,0.03,0.055,0.065,0.085,0.095l22.03,22.03v72.048L7.325,439.261C2.602,444.062,0,450.418,0,457.154
	c0,12.232,8.721,22.774,20.738,25.065l155.456,29.637c0.033,0.006,0.067,0.009,0.1,0.014c0.051,0.009,0.101,0.014,0.153,0.022
	c0.426,0.068,0.85,0.109,1.27,0.109c0.269,0,0.536-0.017,0.801-0.044c0.051-0.004,0.101-0.014,0.153-0.02
	c0.213-0.026,0.426-0.059,0.635-0.101c0.032-0.007,0.065-0.009,0.096-0.015l149.212-31.976l123.137,26.387
	c8.795,1.886,17.852-0.277,24.847-5.932c6.994-5.655,11.006-14.057,11.006-23.052V202.196l22.03-22.031
	C509.663,180.134,509.688,180.101,509.718,180.071z M475.474,25.449c4.218-2.507,9.282-2.555,13.546-0.128
	c4.264,2.426,6.811,6.805,6.811,11.711V154.93l-88.799-88.801L475.474,25.449z M168.205,25.321
	c4.265-2.427,9.329-2.378,13.546,0.128l68.442,40.679l-88.798,88.801V37.032C161.394,32.125,163.941,27.747,168.205,25.321z
	 M16.168,457.154c0-2.467,0.953-4.794,2.684-6.555l150.771-153.3v196.844L23.767,466.337
	C19.363,465.497,16.168,461.635,16.168,457.154z M471.433,477.247c0,4.088-1.823,7.907-5.004,10.478
	c-3.179,2.572-7.294,3.558-11.294,2.696l-118.44-25.381v-90.477c0-4.466-3.618-8.084-8.084-8.084s-8.084,3.62-8.084,8.084v90.477
	L185.79,493.914v-275.55l121.862,121.864c5.779,5.777,13.369,8.667,20.96,8.667c7.592,0,15.182-2.89,20.961-8.667l121.86-121.864
	L471.433,477.247L471.433,477.247z M294.091,303.798l24.994-24.996c5.253-5.254,13.8-5.253,19.055-0.001l24.995,24.997
	l-24.995,24.996c-2.544,2.545-5.928,3.947-9.527,3.947c-3.598,0-6.983-1.402-9.526-3.947L294.091,303.798z M374.568,292.365
	l-24.995-24.997c-11.556-11.556-30.362-11.557-41.92,0.001l-24.994,24.996L164.743,174.448L265.129,74.06l8.893-8.893l45.064-45.066
	c5.253-5.254,13.8-5.254,19.055,0l44.132,44.133l10.418,10.418l99.794,99.797L374.568,292.365z M310.288,148.2
	c0,4.466-3.618,8.084-8.084,8.084h-1.078c-4.466,0-8.084-3.618-8.084-8.084c0-4.466,3.618-8.084,8.084-8.084h1.078
	C306.67,140.115,310.288,143.735,310.288,148.2z M364.183,148.2c0,4.466-3.618,8.084-8.084,8.084h-1.078
	c-4.466,0-8.084-3.618-8.084-8.084c0-4.466,3.618-8.084,8.084-8.084h1.078C360.564,140.115,364.183,143.735,364.183,148.2z"/>
<g>
</g>
<g>
</g>
<g>
</g>
<g>
</g>
<g>
</g>
<g>
</g>
<g>
</g>
<g>
</g>
<g>
</g>
<g>
</g>
<g>
</g>
<g>
</g>
<g>
</g>
<g>
</g>
<g>
</g>
</svg>
